<?xml version="1.0" encoding="iso-8859-1"?>
<!-- Generator: Adobe Illustrator 19.0.0, SVG Export Plug-In . SVG Version: 6.00 Build 0)  -->
<svg version="1.1" id="Layer_1" xmlns="http://www.w3.org/2000/svg" xmlns:xlink="http://www.w3.org/1999/xlink" x="0px" y="0px"
	 viewBox="0 0 512 512" style="enable-background:new 0 0 512 512;" xml:space="preserve">
<rect x="78.545" y="83.43" style="fill:#72BEDE;" width="237.937" height="129.877"/>
<rect x="316.472" y="98.617" style="fill:#F2F2F2;" width="116.985" height="99.514"/>
<g>
	<rect x="170.746" y="213.307" style="fill:#FFAD61;" width="53.536" height="288.495"/>
	<polygon style="fill:#FFAD61;" points="331.346,51.598 278.803,51.598 278.803,10.2 	"/>
</g>
<g>
	<path style="fill:#534741;" d="M268.603,73.235H78.542c-5.632,0-10.199,4.567-10.199,10.199v129.873
		c0,5.632,4.567,10.199,10.199,10.199h82v278.295c0,5.632,4.567,10.199,10.199,10.199h53.536c5.632,0,10.199-4.567,10.199-10.199
		V223.506h82c5.632,0,10.199-4.567,10.199-10.199v-4.981h106.785c5.632,0,10.199-4.567,10.199-10.199V98.614
		c0-5.632-4.567-10.199-10.199-10.199H326.675v-4.981c0-5.632-4.567-10.199-10.199-10.199h-27.475V61.797h42.345
		c4.346,0,8.213-2.753,9.636-6.859c1.424-4.106,0.089-8.662-3.325-11.352L285.113,2.188c-3.068-2.418-7.25-2.87-10.764-1.166
		c-3.515,1.706-5.747,5.269-5.747,9.176L268.603,73.235L268.603,73.235z M289.001,41.399V31.22l12.919,10.179H289.001z
		 M359.197,156.125l64.064-36.692v60.802L359.197,156.125z M400.759,108.814l-74.084,42.431v-42.431H400.759z M214.078,491.602
		h-33.137V223.506h33.137V491.602z M306.277,203.107H88.741V93.633h179.863v15.706c0,5.632,4.567,10.199,10.199,10.199
		c5.632,0,10.199-4.567,10.199-10.199V93.633h17.275v109.474H306.277z M326.675,174.751l9.557-5.473l49.554,18.649h-59.111V174.751z
		"/>
	<path style="fill:#534741;" d="M212.144,174.274h-3.06c-5.632,0-10.199,4.567-10.199,10.199s4.567,10.199,10.199,10.199h3.06
		c5.632,0,10.199-4.567,10.199-10.199S217.776,174.274,212.144,174.274z"/>
	<path style="fill:#534741;" d="M177.467,174.274h-69.355c-5.632,0-10.199,4.567-10.199,10.199s4.567,10.199,10.199,10.199h69.355
		c5.632,0,10.199-4.567,10.199-10.199S183.099,174.274,177.467,174.274z"/>
</g>
<g>
</g>
<g>
</g>
<g>
</g>
<g>
</g>
<g>
</g>
<g>
</g>
<g>
</g>
<g>
</g>
<g>
</g>
<g>
</g>
<g>
</g>
<g>
</g>
<g>
</g>
<g>
</g>
<g>
</g>
</svg>
